<svg width="32" height="38" viewBox="0 0 32 38" fill="none" xmlns="http://www.w3.org/2000/svg">
<path fill-rule="evenodd" clip-rule="evenodd" d="M9.87498 10C9.87498 6.61726 12.6172 3.875 16 3.875C19.3827 3.875 22.125 6.61726 22.125 10C22.125 13.3827 19.3827 16.125 16 16.125C12.6172 16.125 9.87498 13.3827 9.87498 10ZM16 0.125C10.5462 0.125 6.12498 4.54619 6.12498 10C6.12498 15.4538 10.5462 19.875 16 19.875C21.4538 19.875 25.875 15.4538 25.875 10C25.875 4.54619 21.4538 0.125 16 0.125ZM3.875 32.6666C3.875 29.9752 5.99015 27.8749 8.5 27.8749H23.5C26.0099 27.8749 28.125 29.9752 28.125 32.6666V34.1249H3.875V32.6666ZM8.5 24.1249C3.83015 24.1249 0.125 27.9942 0.125 32.6666V35.9999C0.125 37.0355 0.964466 37.8749 2 37.8749H30C31.0355 37.8749 31.875 37.0355 31.875 35.9999V32.6666C31.875 27.9942 28.1699 24.1249 23.5 24.1249H8.5Z" fill="black"/>
</svg>
