<svg width="40" height="32" viewBox="0 0 40 32" fill="none" xmlns="http://www.w3.org/2000/svg">
<path d="M1.99957 2V0C0.895003 0 -0.000427246 0.895431 -0.000427246 2H1.99957ZM37.9996 2H39.9996C39.9996 0.895431 39.1041 0 37.9996 0V2ZM37.9996 30V32C39.1041 32 39.9996 31.1046 39.9996 30H37.9996ZM1.99957 30H-0.000427246C-0.000427246 31.1046 0.895003 32 1.99957 32L1.99957 30ZM2.97086 4.25169C2.00529 3.71526 0.787685 4.06315 0.251258 5.02871C-0.285168 5.99428 0.0627194 7.21189 1.02829 7.74831L2.97086 4.25169ZM19.9996 16L19.0283 17.7483C19.6323 18.0839 20.3668 18.0839 20.9709 17.7483L19.9996 16ZM38.9709 7.74831C39.9364 7.21189 40.2843 5.99428 39.7479 5.02871C39.2115 4.06315 37.9939 3.71526 37.0283 4.25169L38.9709 7.74831ZM1.99957 4H37.9996V0H1.99957V4ZM35.9996 2V30H39.9996V2H35.9996ZM37.9996 28H1.99957V32H37.9996V28ZM3.99957 30V2H-0.000427246V30H3.99957ZM1.02829 7.74831L19.0283 17.7483L20.9709 14.2517L2.97086 4.25169L1.02829 7.74831ZM20.9709 17.7483L38.9709 7.74831L37.0283 4.25169L19.0283 14.2517L20.9709 17.7483Z" fill="black"/>
</svg>
