<svg width="48" height="50" viewBox="0 0 48 50" fill="none" xmlns="http://www.w3.org/2000/svg">
<path d="M31.6699 29.6979H30.1108L29.5582 29.1354C31.4923 26.7604 32.6566 23.6771 32.6566 20.3229C32.6566 12.8437 26.9137 6.78125 19.8289 6.78125C12.744 6.78125 7.00116 12.8437 7.00116 20.3229C7.00116 27.8021 12.744 33.8646 19.8289 33.8646C23.0062 33.8646 25.927 32.6354 28.1768 30.5937L28.7096 31.1771V32.8229L38.5771 43.2187L41.5176 40.1146L31.6699 29.6979ZM19.8289 29.6979C14.9149 29.6979 10.9482 25.5104 10.9482 20.3229C10.9482 15.1354 14.9149 10.9479 19.8289 10.9479C24.7429 10.9479 28.7096 15.1354 28.7096 20.3229C28.7096 25.5104 24.7429 29.6979 19.8289 29.6979Z" fill="#1C1C1C"/>
</svg>
